<svg id="visual" viewBox="0 0 900 600" width="900" height="600" xmlns="http://www.w3.org/2000/svg" xmlns:xlink="http://www.w3.org/1999/xlink" version="1.1"><rect x="0" y="0" width="900" height="600" fill="#FFFFFF"></rect><defs><linearGradient id="grad1_0" x1="33.3%" y1="0%" x2="100%" y2="100%"><stop offset="20%" stop-color="#ff04f7" stop-opacity="1"></stop><stop offset="80%" stop-color="#ff04f7" stop-opacity="1"></stop></linearGradient></defs><defs><linearGradient id="grad1_1" x1="33.3%" y1="0%" x2="100%" y2="100%"><stop offset="20%" stop-color="#ff04f7" stop-opacity="1"></stop><stop offset="80%" stop-color="#ff53f9" stop-opacity="1"></stop></linearGradient></defs><defs><linearGradient id="grad1_2" x1="33.3%" y1="0%" x2="100%" y2="100%"><stop offset="20%" stop-color="#ff78fa" stop-opacity="1"></stop><stop offset="80%" stop-color="#ff53f9" stop-opacity="1"></stop></linearGradient></defs><defs><linearGradient id="grad1_3" x1="33.3%" y1="0%" x2="100%" y2="100%"><stop offset="20%" stop-color="#ff78fa" stop-opacity="1"></stop><stop offset="80%" stop-color="#ff97fc" stop-opacity="1"></stop></linearGradient></defs><defs><linearGradient id="grad1_4" x1="33.3%" y1="0%" x2="100%" y2="100%"><stop offset="20%" stop-color="#ffb3fd" stop-opacity="1"></stop><stop offset="80%" stop-color="#ff97fc" stop-opacity="1"></stop></linearGradient></defs><defs><linearGradient id="grad1_5" x1="33.3%" y1="0%" x2="100%" y2="100%"><stop offset="20%" stop-color="#ffb3fd" stop-opacity="1"></stop><stop offset="80%" stop-color="#ffcdfe" stop-opacity="1"></stop></linearGradient></defs><defs><linearGradient id="grad1_6" x1="33.3%" y1="0%" x2="100%" y2="100%"><stop offset="20%" stop-color="#ffe6ff" stop-opacity="1"></stop><stop offset="80%" stop-color="#ffcdfe" stop-opacity="1"></stop></linearGradient></defs><defs><linearGradient id="grad1_7" x1="33.3%" y1="0%" x2="100%" y2="100%"><stop offset="20%" stop-color="#ffe6ff" stop-opacity="1"></stop><stop offset="80%" stop-color="#ffffff" stop-opacity="1"></stop></linearGradient></defs><defs><linearGradient id="grad2_0" x1="0%" y1="0%" x2="66.7%" y2="100%"><stop offset="20%" stop-color="#ff04f7" stop-opacity="1"></stop><stop offset="80%" stop-color="#ff04f7" stop-opacity="1"></stop></linearGradient></defs><defs><linearGradient id="grad2_1" x1="0%" y1="0%" x2="66.7%" y2="100%"><stop offset="20%" stop-color="#ff53f9" stop-opacity="1"></stop><stop offset="80%" stop-color="#ff04f7" stop-opacity="1"></stop></linearGradient></defs><defs><linearGradient id="grad2_2" x1="0%" y1="0%" x2="66.7%" y2="100%"><stop offset="20%" stop-color="#ff53f9" stop-opacity="1"></stop><stop offset="80%" stop-color="#ff78fa" stop-opacity="1"></stop></linearGradient></defs><defs><linearGradient id="grad2_3" x1="0%" y1="0%" x2="66.7%" y2="100%"><stop offset="20%" stop-color="#ff97fc" stop-opacity="1"></stop><stop offset="80%" stop-color="#ff78fa" stop-opacity="1"></stop></linearGradient></defs><defs><linearGradient id="grad2_4" x1="0%" y1="0%" x2="66.7%" y2="100%"><stop offset="20%" stop-color="#ff97fc" stop-opacity="1"></stop><stop offset="80%" stop-color="#ffb3fd" stop-opacity="1"></stop></linearGradient></defs><defs><linearGradient id="grad2_5" x1="0%" y1="0%" x2="66.7%" y2="100%"><stop offset="20%" stop-color="#ffcdfe" stop-opacity="1"></stop><stop offset="80%" stop-color="#ffb3fd" stop-opacity="1"></stop></linearGradient></defs><defs><linearGradient id="grad2_6" x1="0%" y1="0%" x2="66.7%" y2="100%"><stop offset="20%" stop-color="#ffcdfe" stop-opacity="1"></stop><stop offset="80%" stop-color="#ffe6ff" stop-opacity="1"></stop></linearGradient></defs><defs><linearGradient id="grad2_7" x1="0%" y1="0%" x2="66.7%" y2="100%"><stop offset="20%" stop-color="#ffffff" stop-opacity="1"></stop><stop offset="80%" stop-color="#ffe6ff" stop-opacity="1"></stop></linearGradient></defs><g transform="translate(900, 0)"><path d="M0 486.7C-64.5 469.2 -129 451.7 -171.8 414.8C-214.6 378 -235.8 321.8 -285 285C-334.2 248.1 -411.4 230.5 -449.7 186.3C-488 142 -487.4 71 -486.7 0L0 0Z" fill="#fff3ff"></path><path d="M0 425.9C-56.4 410.6 -112.9 395.2 -150.3 363C-187.8 330.7 -206.3 281.6 -249.3 249.3C-292.4 217.1 -360 201.7 -393.5 163C-427 124.2 -426.5 62.1 -425.9 0L0 0Z" fill="#ffdafe"></path><path d="M0 365.1C-48.4 351.9 -96.8 338.8 -128.9 311.1C-161 283.5 -176.8 241.4 -213.7 213.7C-250.6 186.1 -308.5 172.9 -337.3 139.7C-366 106.5 -365.5 53.2 -365.1 0L0 0Z" fill="#ffc0fd"></path><path d="M0 304.2C-40.3 293.3 -80.6 282.3 -107.4 259.3C-134.2 236.2 -147.4 201.1 -178.1 178.1C-208.8 155.1 -257.1 144.1 -281.1 116.4C-305 88.7 -304.6 44.4 -304.2 0L0 0Z" fill="#ffa5fc"></path><path d="M0 243.4C-32.3 234.6 -64.5 225.8 -85.9 207.4C-107.3 189 -117.9 160.9 -142.5 142.5C-167.1 124.1 -205.7 115.3 -224.8 93.1C-244 71 -243.7 35.5 -243.4 0L0 0Z" fill="#ff88fb"></path><path d="M0 182.5C-24.2 176 -48.4 169.4 -64.4 155.6C-80.5 141.7 -88.4 120.7 -106.9 106.9C-125.3 93 -154.3 86.5 -168.6 69.9C-183 53.2 -182.8 26.6 -182.5 0L0 0Z" fill="#ff67fa"></path><path d="M0 121.7C-16.1 117.3 -32.3 112.9 -43 103.7C-53.7 94.5 -58.9 80.5 -71.2 71.2C-83.5 62 -102.8 57.6 -112.4 46.6C-122 35.5 -121.8 17.7 -121.7 0L0 0Z" fill="#ff3af8"></path><path d="M0 60.8C-8.1 58.7 -16.1 56.5 -21.5 51.9C-26.8 47.2 -29.5 40.2 -35.6 35.6C-41.8 31 -51.4 28.8 -56.2 23.3C-61 17.7 -60.9 8.9 -60.8 0L0 0Z" fill="#ff04f7"></path></g><g transform="translate(0, 600)"><path d="M0 -486.7C62.1 -479.6 124.3 -472.5 186.3 -449.7C248.3 -426.9 310.1 -388.4 333.8 -333.8C357.4 -279.1 343 -208.3 362.2 -150C381.3 -91.7 434 -45.8 486.7 0L0 0Z" fill="#fff3ff"></path><path d="M0 -425.9C54.4 -419.7 108.8 -413.4 163 -393.5C217.2 -373.5 271.3 -339.8 292 -292C312.8 -244.2 300.1 -182.3 316.9 -131.3C333.6 -80.2 379.8 -40.1 425.9 0L0 0Z" fill="#ffdafe"></path><path d="M0 -365.1C46.6 -359.7 93.2 -354.4 139.7 -337.3C186.2 -320.2 232.5 -291.3 250.3 -250.3C268.1 -209.3 257.3 -156.2 271.6 -112.5C286 -68.8 325.5 -34.4 365.1 0L0 0Z" fill="#ffc0fd"></path><path d="M0 -304.2C38.8 -299.8 77.7 -295.3 116.4 -281.1C155.2 -266.8 193.8 -242.7 208.6 -208.6C223.4 -174.4 214.4 -130.2 226.4 -93.8C238.3 -57.3 271.3 -28.7 304.2 0L0 0Z" fill="#ffa5fc"></path><path d="M0 -243.4C31.1 -239.8 62.1 -236.3 93.1 -224.8C124.1 -213.4 155 -194.2 166.9 -166.9C178.7 -139.6 171.5 -104.2 181.1 -75C190.7 -45.8 217 -22.9 243.4 0L0 0Z" fill="#ff88fb"></path><path d="M0 -182.5C23.3 -179.9 46.6 -177.2 69.9 -168.6C93.1 -160.1 116.3 -145.6 125.2 -125.2C134 -104.7 128.6 -78.1 135.8 -56.3C143 -34.4 162.8 -17.2 182.5 0L0 0Z" fill="#ff67fa"></path><path d="M0 -121.7C15.5 -119.9 31.1 -118.1 46.6 -112.4C62.1 -106.7 77.5 -97.1 83.4 -83.4C89.4 -69.8 85.8 -52.1 90.5 -37.5C95.3 -22.9 108.5 -11.5 121.7 0L0 0Z" fill="#ff3af8"></path><path d="M0 -60.8C7.8 -60 15.5 -59.1 23.3 -56.2C31 -53.4 38.8 -48.5 41.7 -41.7C44.7 -34.9 42.9 -26 45.3 -18.8C47.7 -11.5 54.3 -5.7 60.8 0L0 0Z" fill="#ff04f7"></path></g></svg>